<svg width="228" height="178" viewBox="0 0 228 178" fill="none" xmlns="http://www.w3.org/2000/svg">
<path d="M14.5337 155C14.5337 157.207 12.74 159 10.5227 159C8.30543 159 6.51172 157.207 6.51172 155C6.51172 152.793 8.30543 151 10.5227 151C12.74 151 14.5337 152.793 14.5337 155Z" stroke="#FF9800" stroke-width="2"/>
<path opacity="0.65385" d="M139.556 129C163.358 119.25 169.622 119.25 186.409 89.4998C203.196 59.7498 179.408 14.7498 139.556 14.7498C99.7044 14.7498 -8.76899 48.4998 40.0882 89.4998C88.9453 130.5 115.754 138.75 139.556 129Z" fill="#E9E9E9"/>
<path opacity="0.391071" d="M112.65 174.25C164.403 174.25 205.952 141.138 205.952 89.4998C205.952 37.8611 216.113 25.2498 164.361 25.2498C112.609 25.2498 18.541 37.8611 18.541 89.4998C18.541 141.138 60.8983 174.25 112.65 174.25Z" fill="#E9E9E9"/>
<path opacity="0.202288" d="M141.007 178C202.821 178 239.305 121.19 224.22 70.9345C209.135 20.6794 153.416 54.9112 101.591 18.0088C49.7654 -18.8935 0.373047 9.25644 0.373047 70.9345C0.373047 132.613 79.1937 178 141.007 178Z" fill="#E9E9E9"/>
<path d="M223.994 54.4998C223.994 56.7068 222.2 58.4998 219.983 58.4998C217.765 58.4998 215.972 56.7068 215.972 54.4998C215.972 52.2927 217.765 50.4998 219.983 50.4998C222.2 50.4998 223.994 52.2927 223.994 54.4998Z" stroke="#FF9800" stroke-width="2"/>
<path d="M31.8184 140.25H190.67V147C190.67 147.966 189.887 148.75 188.92 148.75H33.5684C32.6019 148.75 31.8184 147.966 31.8184 147V140.25Z" fill="white" stroke="#C9C9C9" stroke-width="1.5"/>
<path opacity="0.298549" d="M51.1123 62.4998C51.1123 61.119 52.2316 59.9998 53.6123 59.9998H168.876C170.257 59.9998 171.376 61.119 171.376 62.4998V135H53.6123C52.2316 135 51.1123 133.88 51.1123 132.5V62.4998Z" fill="#D8D8D8"/>
<path d="M89.9463 140.25H131.541V141C131.541 143.071 129.862 144.75 127.791 144.75H93.6963C91.6252 144.75 89.9463 143.071 89.9463 141V140.25Z" stroke="#C9C9C9" stroke-width="1.5"/>
<path d="M41.8408 53.4998C41.8408 51.7048 43.2959 50.2498 45.0908 50.2498H177.399C179.193 50.2498 180.649 51.7048 180.649 53.4998V140.25H41.8408V53.4998Z" fill="white" stroke="#C9C9C9" stroke-width="1.5"/>
<path opacity="0.198326" d="M52.1143 62.4998C52.1143 61.3952 53.0097 60.4998 54.1143 60.4998H168.375C169.755 60.4998 170.875 61.619 170.875 62.9998V135.5H52.1143V62.4998Z" fill="#D8D8D8"/>
<path d="M52 86.2498V104.25" stroke="#C9C9C9" stroke-width="1.5" stroke-linecap="square"/>
<path d="M52 111V121" stroke="#C9C9C9" stroke-width="1.5" stroke-linecap="square"/>
<path d="M170.624 125V134.25" stroke="#C9C9C9" stroke-width="1.5" stroke-linecap="square"/>
<path d="M52.75 78.9998H51.25V61.4998C51.25 59.9834 52.4656 58.7498 53.9707 58.7498H168.529C170.034 58.7498 171.25 59.9834 171.25 61.4998V119H169.75V61.4998C169.75 60.8069 169.201 60.2498 168.529 60.2498H53.9707C53.299 60.2498 52.75 60.8069 52.75 61.4998V78.9998Z" fill="#C9C9C9"/>
<path d="M71.1562 29.4998H151.332V135H71.1562V29.4998Z" fill="white"/>
<path d="M136 30.9998V29.4998H147C149.623 29.4998 151.75 31.6264 151.75 34.2498V114.25H150.25V34.2498C150.25 32.4548 148.795 30.9998 147 30.9998H136Z" fill="#C9C9C9"/>
<path d="M86.75 30.9998H75.75C73.9551 30.9998 72.5 32.4548 72.5 34.2498V135.25H71V34.2498C71 31.6264 73.1266 29.4998 75.75 29.4998H86.75V30.9998Z" fill="#C9C9C9"/>
<path d="M151 126.25V134.25" stroke="#C9C9C9" stroke-width="1.5" stroke-linecap="square"/>
<path d="M115.503 30.2498H95.96" stroke="#C9C9C9" stroke-width="1.5" stroke-linecap="square"/>
<path d="M141.56 30.2498H122.018" stroke="#C9C9C9" stroke-width="1.5" stroke-linecap="square"/>
<path d="M85.9387 30.2498H76.9189" stroke="#C9C9C9" stroke-width="1.5" stroke-linecap="square"/>
<path opacity="0.603739" d="M91.1997 59.4998C96.7347 59.4998 101.222 55.0226 101.222 49.4998C101.222 43.9769 96.7347 39.4998 91.1997 39.4998C85.6647 39.4998 81.1777 43.9769 81.1777 49.4998C81.1777 55.0226 85.6647 59.4998 91.1997 59.4998Z" fill="#5395FF"/>
<rect opacity="0.597489" x="106.233" y="111" width="30.0659" height="15" rx="3" fill="#97BFFF"/>
<path opacity="0.602176" d="M111.244 40.4998C111.244 39.9475 111.692 39.4998 112.244 39.4998H140.31C140.862 39.4998 141.31 39.9475 141.31 40.4998C141.31 41.052 140.862 41.4998 140.31 41.4998H112.244C111.692 41.4998 111.244 41.052 111.244 40.4998Z" fill="#9F9F9F"/>
<rect opacity="0.602176" x="81.1777" y="69.4998" width="60.1319" height="2" rx="1" fill="#9F9F9F"/>
<path opacity="0.602176" d="M81.1777 80.4998C81.1777 79.9475 81.6254 79.4998 82.1777 79.4998H120.266C120.818 79.4998 121.266 79.9475 121.266 80.4998C121.266 81.052 120.818 81.4998 120.266 81.4998H82.1777C81.6255 81.4998 81.1777 81.052 81.1777 80.4998Z" fill="#9F9F9F"/>
<rect opacity="0.602176" x="81.1777" y="89.4998" width="50.1099" height="2" rx="1" fill="#9F9F9F"/>
<rect opacity="0.602176" x="81.1777" y="99.4998" width="10.022" height="2" rx="1" fill="#9F9F9F"/>
<rect opacity="0.602176" x="101.222" y="99.4998" width="10.022" height="2" rx="1" fill="#9F9F9F"/>
<rect opacity="0.602176" x="121.266" y="99.4998" width="20.044" height="2" rx="1" fill="#9F9F9F"/>
<path opacity="0.602176" d="M81.1777 120.5C81.1777 119.947 81.6254 119.5 82.1777 119.5H100.222C100.774 119.5 101.222 119.947 101.222 120.5C101.222 121.052 100.774 121.5 100.222 121.5H82.1777C81.6255 121.5 81.1777 121.052 81.1777 120.5Z" fill="#9F9F9F"/>
<path opacity="0.602176" d="M111.244 120.5C111.244 119.947 111.692 119.5 112.244 119.5H140.31C140.862 119.5 141.31 119.947 141.31 120.5C141.31 121.052 140.862 121.5 140.31 121.5H112.244C111.692 121.5 111.244 121.052 111.244 120.5Z" fill="#9F9F9F"/>
<path opacity="0.602176" d="M81.1777 130.5C81.1777 129.947 81.6254 129.5 82.1777 129.5H120.266C120.818 129.5 121.266 129.947 121.266 130.5C121.266 131.052 120.818 131.5 120.266 131.5H82.1777C81.6255 131.5 81.1777 131.052 81.1777 130.5Z" fill="#9F9F9F"/>
<path opacity="0.602176" d="M131.288 130.5C131.288 129.947 131.736 129.5 132.288 129.5H140.31C140.862 129.5 141.31 129.947 141.31 130.5C141.31 131.052 140.862 131.5 140.31 131.5H132.288C131.736 131.5 131.288 131.052 131.288 130.5Z" fill="#9F9F9F"/>
<rect opacity="0.602176" x="111.244" y="49.4998" width="15.5341" height="2" rx="1" fill="#9F9F9F"/>
<path opacity="0.602176" d="M132.288 49.4998H140.31C140.862 49.4998 141.31 49.9475 141.31 50.4998C141.31 51.052 140.862 51.4998 140.31 51.4998H132.288C131.736 51.4998 131.288 51.052 131.288 50.4998C131.288 49.9475 131.736 49.4998 132.288 49.4998Z" fill="#9F9F9F"/>
<path fill-rule="evenodd" clip-rule="evenodd" d="M22.5626 10.5861C22.3088 10.3322 21.8972 10.3322 21.6434 10.5861C21.3896 10.8399 21.3896 11.2515 21.6434 11.5053L25.3305 15.1924L21.6434 18.8794C21.3896 19.1333 21.3896 19.5448 21.6434 19.7987C21.8972 20.0525 22.3088 20.0525 22.5626 19.7987L26.2497 16.1116L29.9368 19.7987C30.1906 20.0525 30.6022 20.0525 30.856 19.7987C31.1098 19.5448 31.1098 19.1333 30.856 18.8794L27.1689 15.1924L30.856 11.5053C31.1098 11.2515 31.1098 10.8399 30.856 10.5861C30.6022 10.3322 30.1906 10.3322 29.9368 10.5861L26.2497 14.2731L22.5626 10.5861Z" fill="#FF9800"/>
<path d="M25.3305 15.1924L25.5072 15.3692L25.684 15.1924L25.5072 15.0156L25.3305 15.1924ZM26.2497 16.1116L26.4265 15.9348L26.2497 15.7581L26.0729 15.9348L26.2497 16.1116ZM30.856 18.8794L31.0328 18.7027L30.856 18.8794ZM27.1689 15.1924L26.9922 15.0156L26.8154 15.1924L26.9922 15.3692L27.1689 15.1924ZM30.856 11.5053L31.0328 11.6821L30.856 11.5053ZM26.2497 14.2731L26.0729 14.4499L26.2497 14.6267L26.4265 14.4499L26.2497 14.2731ZM21.8202 10.7629C21.9764 10.6067 22.2297 10.6067 22.3859 10.7629L22.7394 10.4093C22.3879 10.0578 21.8181 10.0578 21.4666 10.4093L21.8202 10.7629ZM21.8202 11.3285C21.664 11.1723 21.664 10.9191 21.8202 10.7629L21.4666 10.4093C21.1152 10.7608 21.1152 11.3306 21.4666 11.6821L21.8202 11.3285ZM25.5072 15.0156L21.8202 11.3285L21.4666 11.6821L25.1537 15.3692L25.5072 15.0156ZM21.8202 19.0562L25.5072 15.3692L25.1537 15.0156L21.4666 18.7027L21.8202 19.0562ZM21.8202 19.6219C21.664 19.4657 21.664 19.2124 21.8202 19.0562L21.4666 18.7027C21.1152 19.0541 21.1152 19.624 21.4666 19.9755L21.8202 19.6219ZM22.3859 19.6219C22.2297 19.7781 21.9764 19.7781 21.8202 19.6219L21.4666 19.9755C21.8181 20.3269 22.3879 20.3269 22.7394 19.9755L22.3859 19.6219ZM26.0729 15.9348L22.3859 19.6219L22.7394 19.9755L26.4265 16.2884L26.0729 15.9348ZM30.1135 19.6219L26.4265 15.9348L26.0729 16.2884L29.76 19.9755L30.1135 19.6219ZM30.6792 19.6219C30.523 19.7781 30.2697 19.7781 30.1135 19.6219L29.76 19.9755C30.1115 20.3269 30.6813 20.3269 31.0328 19.9755L30.6792 19.6219ZM30.6792 19.0562C30.8354 19.2124 30.8354 19.4657 30.6792 19.6219L31.0328 19.9755C31.3842 19.624 31.3842 19.0541 31.0328 18.7027L30.6792 19.0562ZM26.9922 15.3692L30.6792 19.0562L31.0328 18.7027L27.3457 15.0156L26.9922 15.3692ZM30.6792 11.3285L26.9922 15.0156L27.3457 15.3692L31.0328 11.6821L30.6792 11.3285ZM30.6792 10.7629C30.8354 10.9191 30.8354 11.1723 30.6792 11.3285L31.0328 11.6821C31.3842 11.3306 31.3842 10.7608 31.0328 10.4093L30.6792 10.7629ZM30.1135 10.7629C30.2697 10.6067 30.523 10.6067 30.6792 10.7629L31.0328 10.4093C30.6813 10.0578 30.1115 10.0578 29.76 10.4093L30.1135 10.7629ZM26.4265 14.4499L30.1135 10.7629L29.76 10.4093L26.0729 14.0964L26.4265 14.4499ZM22.3859 10.7629L26.0729 14.4499L26.4265 14.0964L22.7394 10.4093L22.3859 10.7629Z" fill="#FF9800"/>
<path fill-rule="evenodd" clip-rule="evenodd" d="M104.026 11.0535C103.782 11.0104 103.55 11.1734 103.507 11.4175C103.463 11.6615 103.626 11.8943 103.871 11.9373L107.416 12.5624L106.791 16.1075C106.748 16.3516 106.91 16.5843 107.155 16.6274C107.399 16.6704 107.631 16.5074 107.674 16.2634L108.3 12.7183L111.845 13.3434C112.089 13.3864 112.321 13.2234 112.364 12.9794C112.408 12.7353 112.245 12.5025 112 12.4595L108.455 11.8344L109.08 8.28928C109.123 8.04521 108.961 7.81247 108.716 7.76943C108.472 7.7264 108.24 7.88937 108.197 8.13344L107.572 11.6786L104.026 11.0535Z" fill="#FF9800"/>
<path d="M103.871 11.9373L103.827 12.1835L103.871 11.9373ZM107.416 12.5624L107.662 12.6058L107.705 12.3596L107.459 12.3162L107.416 12.5624ZM106.791 16.1075L106.544 16.0641L106.791 16.1075ZM108.3 12.7183L108.343 12.4721L108.097 12.4286L108.053 12.6748L108.3 12.7183ZM108.455 11.8344L108.209 11.791L108.166 12.0372L108.412 12.0806L108.455 11.8344ZM108.197 8.13344L108.443 8.17685L108.197 8.13344ZM107.572 11.6786L107.528 11.9248L107.774 11.9682L107.818 11.722L107.572 11.6786ZM103.753 11.4609C103.772 11.3528 103.875 11.2806 103.983 11.2997L104.07 10.8073C103.69 10.7402 103.327 10.994 103.26 11.374L103.753 11.4609ZM103.914 11.6911C103.806 11.672 103.734 11.569 103.753 11.4609L103.26 11.374C103.193 11.7541 103.447 12.1165 103.827 12.1835L103.914 11.6911ZM107.459 12.3162L103.914 11.6911L103.827 12.1835L107.372 12.8086L107.459 12.3162ZM107.037 16.1509L107.662 12.6058L107.169 12.519L106.544 16.0641L107.037 16.1509ZM107.198 16.3812C107.09 16.3621 107.018 16.259 107.037 16.1509L106.544 16.0641C106.477 16.4442 106.731 16.8066 107.111 16.8736L107.198 16.3812ZM107.428 16.22C107.409 16.3281 107.306 16.4002 107.198 16.3812L107.111 16.8736C107.491 16.9406 107.854 16.6868 107.921 16.3068L107.428 16.22ZM108.053 12.6748L107.428 16.22L107.921 16.3068L108.546 12.7617L108.053 12.6748ZM111.888 13.0972L108.343 12.4721L108.256 12.9645L111.801 13.5896L111.888 13.0972ZM112.118 12.9359C112.099 13.044 111.996 13.1162 111.888 13.0972L111.801 13.5896C112.181 13.6566 112.544 13.4028 112.611 13.0228L112.118 12.9359ZM111.957 12.7057C112.065 12.7248 112.137 12.8278 112.118 12.9359L112.611 13.0228C112.678 12.6427 112.424 12.2803 112.044 12.2133L111.957 12.7057ZM108.412 12.0806L111.957 12.7057L112.044 12.2133L108.499 11.5882L108.412 12.0806ZM108.834 8.24587L108.209 11.791L108.702 11.8778L109.327 8.3327L108.834 8.24587ZM108.673 8.01564C108.781 8.0347 108.853 8.13778 108.834 8.24587L109.327 8.3327C109.394 7.95265 109.14 7.59024 108.76 7.52323L108.673 8.01564ZM108.443 8.17685C108.462 8.06875 108.565 7.99658 108.673 8.01564L108.76 7.52323C108.38 7.45622 108.017 7.70998 107.95 8.09002L108.443 8.17685ZM107.818 11.722L108.443 8.17685L107.95 8.09002L107.325 11.6351L107.818 11.722ZM103.983 11.2997L107.528 11.9248L107.615 11.4324L104.07 10.8073L103.983 11.2997Z" fill="#FF9800"/>
<path fill-rule="evenodd" clip-rule="evenodd" d="M160.257 158.19C160.129 157.855 159.753 157.687 159.418 157.816C159.082 157.945 158.915 158.321 159.044 158.656L160.912 163.524L156.044 165.392C155.709 165.521 155.542 165.897 155.67 166.232C155.799 166.567 156.175 166.735 156.51 166.606L161.378 164.737L163.247 169.605C163.375 169.94 163.751 170.108 164.087 169.979C164.422 169.85 164.589 169.474 164.46 169.139L162.592 164.271L167.46 162.403C167.795 162.274 167.962 161.898 167.834 161.563C167.705 161.228 167.329 161.06 166.994 161.189L162.126 163.058L160.257 158.19Z" fill="#FF9800"/>
<path d="M160.257 158.19L160.491 158.1L160.257 158.19ZM159.044 158.656L159.277 158.566L159.044 158.656ZM160.912 163.524L161.002 163.757L161.235 163.667L161.146 163.434L160.912 163.524ZM161.378 164.737L161.612 164.648L161.522 164.414L161.289 164.504L161.378 164.737ZM162.592 164.271L162.502 164.038L162.269 164.128L162.358 164.361L162.592 164.271ZM166.994 161.189L167.083 161.422L166.994 161.189ZM162.126 163.058L161.893 163.147L161.982 163.381L162.216 163.291L162.126 163.058ZM159.507 158.049C159.713 157.97 159.945 158.073 160.024 158.279L160.491 158.1C160.313 157.636 159.792 157.404 159.328 157.582L159.507 158.049ZM159.277 158.566C159.198 158.36 159.301 158.128 159.507 158.049L159.328 157.582C158.864 157.761 158.632 158.281 158.81 158.745L159.277 158.566ZM161.146 163.434L159.277 158.566L158.81 158.745L160.679 163.613L161.146 163.434ZM156.134 165.626L161.002 163.757L160.823 163.29L155.955 165.159L156.134 165.626ZM155.904 166.142C155.825 165.936 155.928 165.705 156.134 165.626L155.955 165.159C155.491 165.337 155.259 165.858 155.437 166.322L155.904 166.142ZM156.421 166.372C156.214 166.452 155.983 166.349 155.904 166.142L155.437 166.322C155.615 166.786 156.136 167.017 156.6 166.839L156.421 166.372ZM161.289 164.504L156.421 166.372L156.6 166.839L161.468 164.971L161.289 164.504ZM163.48 169.516L161.612 164.648L161.145 164.827L163.013 169.695L163.48 169.516ZM163.997 169.746C163.791 169.825 163.559 169.722 163.48 169.516L163.013 169.695C163.192 170.159 163.712 170.391 164.176 170.212L163.997 169.746ZM164.227 169.229C164.306 169.435 164.203 169.667 163.997 169.746L164.176 170.212C164.64 170.034 164.872 169.514 164.694 169.05L164.227 169.229ZM162.358 164.361L164.227 169.229L164.694 169.05L162.825 164.182L162.358 164.361ZM167.37 162.169L162.502 164.038L162.681 164.505L167.549 162.636L167.37 162.169ZM167.6 161.653C167.679 161.859 167.576 162.09 167.37 162.169L167.549 162.636C168.013 162.458 168.245 161.937 168.067 161.473L167.6 161.653ZM167.083 161.422C167.29 161.343 167.521 161.446 167.6 161.653L168.067 161.473C167.889 161.009 167.368 160.778 166.904 160.956L167.083 161.422ZM162.216 163.291L167.083 161.422L166.904 160.956L162.036 162.824L162.216 163.291ZM160.024 158.279L161.893 163.147L162.359 162.968L160.491 158.1L160.024 158.279Z" fill="#FF9800"/>
<path d="M180.414 8.81172C180.662 8.72125 180.791 8.44686 180.7 8.19885C180.61 7.95083 180.335 7.82312 180.087 7.91359C179.838 8.00405 179.71 8.27845 179.8 8.52646C179.89 8.77447 180.165 8.90218 180.414 8.81172Z" fill="#FF9800" stroke="#FF9800" stroke-width="0.5"/>
<path d="M178.05 8.01778C178.204 8.08924 178.373 8.09171 178.521 8.03786C178.669 7.984 178.796 7.8737 178.868 7.71974C179.012 7.41207 178.879 7.04636 178.571 6.90306L173.933 4.747C173.625 4.6039 173.259 4.73715 173.115 5.04483C172.971 5.3525 173.104 5.71821 173.412 5.86151L178.05 8.01778Z" fill="#FF9800" stroke="#FF9800" stroke-width="0.5"/>
<path d="M181.366 7.00228C181.515 6.94835 181.642 6.83812 181.714 6.68436L183.881 2.05126C184.025 1.7434 183.892 1.37788 183.583 1.23459C183.275 1.09129 182.909 1.22474 182.765 1.53242L180.598 6.16528C180.454 6.47315 180.588 6.83866 180.896 6.98196C181.05 7.05363 181.218 7.05619 181.366 7.00228Z" fill="#FF9800" stroke="#FF9800" stroke-width="0.5"/>
<path d="M186.567 11.9782C186.721 12.0497 186.89 12.0522 187.038 11.9983C187.186 11.9445 187.314 11.8342 187.386 11.6802C187.53 11.3725 187.397 11.0068 187.088 10.8635L182.451 8.70745C182.143 8.56434 181.776 8.6976 181.632 9.00528C181.488 9.31295 181.622 9.67866 181.93 9.82195L186.567 11.9782Z" fill="#FF9800" stroke="#FF9800" stroke-width="0.5"/>
<path d="M177.388 15.5111C177.536 15.4572 177.663 15.3469 177.736 15.1932L179.902 10.5603C180.046 10.2524 179.913 9.88691 179.605 9.74362C179.297 9.60032 178.931 9.73378 178.787 10.0414L176.62 14.6741C176.476 14.982 176.609 15.3475 176.917 15.4908C177.071 15.5625 177.24 15.565 177.388 15.5111Z" fill="#FF9800" stroke="#FF9800" stroke-width="0.5"/>
<path d="M23.0422 90.735C23.2475 90.6603 23.3535 90.4336 23.279 90.2287C23.2044 90.0239 22.9775 89.9184 22.7722 89.9931C22.5668 90.0678 22.4608 90.2945 22.5354 90.4994C22.61 90.7043 22.8369 90.8098 23.0422 90.735Z" fill="#FF9800"/>
<path d="M21.0899 90.079C21.2172 90.138 21.3565 90.1401 21.4787 90.0956C21.601 90.0511 21.7064 89.96 21.7658 89.8328C21.8848 89.5786 21.7749 89.2765 21.5203 89.1581L17.6891 87.3771C17.4346 87.2588 17.1322 87.3689 17.0132 87.6231C16.8942 87.8772 17.0041 88.1794 17.2587 88.2977L21.0899 90.079Z" fill="#FF9800"/>
<path d="M23.8303 89.2401C23.9527 89.1956 24.058 89.1045 24.1175 88.9775L25.9074 85.1501C26.0263 84.8958 25.9164 84.5939 25.6618 84.4755C25.4072 84.3571 25.1048 84.4674 24.9858 84.7215L23.1959 88.5487C23.077 88.803 23.1869 89.105 23.4415 89.2233C23.5688 89.2825 23.708 89.2846 23.8303 89.2401Z" fill="#FF9800"/>
<path d="M28.126 93.3507C28.2533 93.4098 28.3926 93.4118 28.5148 93.3673C28.6371 93.3228 28.7425 93.2317 28.802 93.1045C28.9209 92.8504 28.811 92.5483 28.5564 92.4299L24.7253 90.6488C24.4707 90.5306 24.1683 90.6406 24.0493 90.8948C23.9303 91.149 24.0403 91.4511 24.2948 91.5695L28.126 93.3507Z" fill="#FF9800"/>
<path d="M20.5432 96.2692C20.6656 96.2247 20.7709 96.1336 20.8304 96.0066L22.6202 92.1794C22.7392 91.9251 22.6293 91.6232 22.3747 91.5048C22.1201 91.3864 21.8177 91.4967 21.6987 91.7508L19.9088 95.5778C19.7898 95.8321 19.8997 96.1341 20.1543 96.2525C20.2816 96.3117 20.421 96.3137 20.5432 96.2692Z" fill="#FF9800"/>
<path d="M211.466 110C211.466 112.207 209.673 114 207.455 114C205.238 114 203.444 112.207 203.444 110C203.444 107.793 205.238 106 207.455 106C209.673 106 211.466 107.793 211.466 110Z" stroke="#FF9800" stroke-width="2"/>
</svg>
