<svg width="27" height="35" viewBox="0 0 27 35" fill="none" xmlns="http://www.w3.org/2000/svg">
<path opacity="0.9" d="M12.4175 23.0312C12.4731 22.9091 12.4731 22.9091 12.5286 22.787L17.212 12.6985C17.5482 11.9592 17.2818 11.2484 16.5425 10.9122C15.8032 10.576 15.0339 10.971 14.7562 11.5818L10.0758 21.6637C10.0202 21.7859 10.0202 21.7859 9.96464 21.9081C8.26091 21.7307 6.66979 22.6364 5.94475 24.2308C4.99463 26.3202 5.8675 28.649 7.95691 29.5991C10.0462 30.5492 12.375 29.6763 13.3251 27.5869C14.0408 25.9961 13.671 24.1987 12.4175 23.0312Z" fill="white"/>
<path d="M15.5487 22.6787L21.9463 8.60973C22.8964 6.52032 22.0236 4.19158 19.9342 3.24146C17.8447 2.29134 15.4605 3.28636 14.5659 5.25362L8.1712 19.3162C6.18968 19.7497 4.37349 21.1503 3.47891 23.1176C1.91488 26.5571 3.39069 30.4944 6.83018 32.0585C10.2697 33.6225 14.207 32.1467 15.771 28.7072C16.6656 26.7399 16.5181 24.454 15.5487 22.6787ZM7.38566 30.8369C4.67908 29.6061 3.47312 26.3891 4.70395 23.6823C5.54295 21.8373 7.25162 20.6901 9.11553 20.4983L15.7938 5.812C16.4077 4.46192 18.0163 3.85897 19.3664 4.47289C20.7165 5.08682 21.3194 6.6954 20.7055 8.04547L14.0302 22.7252C15.1171 24.259 15.3693 26.2979 14.5303 28.1429C13.3124 30.8554 10.0922 32.0676 7.38566 30.8369Z" fill="white"/>
</svg>
