<svg width="36" height="30" viewBox="0 0 36 30" fill="none" xmlns="http://www.w3.org/2000/svg">
<path fill-rule="evenodd" clip-rule="evenodd" d="M30.4945 11.2469C29.3042 10.302 27.7297 9.88108 26.3171 10.0599C25.1388 10.204 24.0539 10.6807 23.1881 11.4275C23.1725 11.4279 23.1577 11.4237 23.1416 11.4241C23.1512 11.4321 23.1581 11.44 23.1673 11.4497C23.1492 11.466 23.1308 11.4823 23.114 11.4991C23.1092 11.4899 23.1048 11.4811 23.0996 11.4735C23.1544 11.3952 23.2161 11.3236 23.2734 11.2474C24.3103 10.4825 25.2986 9.86349 26.2886 9.46265C27.3106 9.04464 28.2994 8.8993 29.3002 9.00318C30.3014 9.10538 31.3334 9.45553 32.3955 9.94642C33.462 10.4298 34.5313 11.058 35.75 11.6373C35.2324 10.3473 34.4231 9.23438 33.3822 8.31836C32.3434 7.41658 31.0173 6.71292 29.5261 6.56381C28.0374 6.39711 26.4801 6.89051 25.3599 7.80318C25.0026 8.09386 24.6817 8.4193 24.396 8.7682C24.4549 8.54119 24.5214 8.31543 24.5567 8.07962C24.7898 6.61449 24.4565 4.94915 23.6068 3.66496C22.7682 2.36653 21.5427 1.48528 20.2895 0.963812C19.0235 0.446535 17.6994 0.234598 16.3689 0.376168C17.4394 1.21638 18.4778 1.89826 19.3949 2.64758C20.3135 3.38768 21.1032 4.16632 21.6673 5.03669C22.2334 5.9058 22.5843 6.88297 22.7222 8.02182C22.8359 8.93407 22.8215 9.91878 22.7306 10.9797C22.6989 9.87606 22.3596 8.77407 21.763 7.78726C21.0066 6.52946 19.7034 5.5125 18.2515 5.14098C16.8028 4.7502 15.326 4.94035 14.0572 5.41826C12.7804 5.90957 11.657 6.66894 10.75 7.69637C12.0833 7.58286 13.294 7.3747 14.4551 7.29889C15.6109 7.21554 16.6958 7.25323 17.671 7.51334C18.6453 7.77051 19.5271 8.25847 20.3528 9.01574C20.7839 9.40695 21.1933 9.86224 21.594 10.3636C21.1064 10.2229 20.5639 10.2183 20.0728 10.3862C19.4225 10.5956 18.8957 11.0367 18.5135 11.538C18.1333 12.0461 17.8721 12.6174 17.7547 13.2407C18.2435 12.8662 18.6641 12.4842 19.0972 12.1659C19.5247 11.8455 19.9526 11.59 20.3881 11.4463C20.8224 11.3043 21.2759 11.2729 21.7671 11.3609C21.967 11.3948 22.1745 11.458 22.3832 11.5246C21.8536 12.0612 21.3528 12.6308 20.8877 13.2294C19.8043 14.6304 18.8737 16.1642 18.0464 17.7508C17.219 19.3374 16.4923 20.9847 15.8457 22.6652C15.1998 24.3607 14.6165 27.6637 14.1314 29.4999L17.9803 29.4974C18.094 27.8874 18.3508 25.2 18.6521 23.5389C18.9594 21.8593 19.3472 20.1898 19.8384 18.5558C20.3324 16.9211 20.9309 15.3165 21.6993 13.7956C22.0343 13.1364 22.4113 12.4943 22.8223 11.8761C22.9605 11.8668 23.094 11.8597 23.2294 11.8513C23.2598 11.8647 23.2891 11.8752 23.3211 11.889C23.3159 11.8748 23.3071 11.8618 23.2999 11.8492C23.386 11.8434 23.4742 11.8384 23.5587 11.8338C23.8291 12.1047 24.0771 12.377 24.267 12.6631C24.5539 13.0869 24.7233 13.5272 24.789 14.0009C24.8551 14.4717 24.8191 14.9873 24.7277 15.5292C24.6404 16.0729 24.493 16.6325 24.3796 17.2583C24.8672 16.8767 25.2478 16.385 25.5214 15.8057C25.787 15.2285 25.9409 14.542 25.8395 13.8388C25.749 13.136 25.3716 12.4729 24.8656 12.0574C24.757 11.9682 24.6436 11.8924 24.5258 11.8212C25.144 11.8287 25.7321 11.8769 26.2894 11.9812C27.3719 12.1747 28.2902 12.5843 29.0959 13.2147C29.9019 13.8434 30.6119 14.7008 31.2777 15.6934C31.9512 16.6857 32.5581 17.7998 33.3121 18.9563C33.5056 17.572 33.3642 16.1814 32.9259 14.834C32.484 13.4991 31.6972 12.1806 30.4945 11.2469Z" fill="white"/>
<path fill-rule="evenodd" clip-rule="evenodd" d="M2.62532 22.1811C2.53643 23.0798 2.6454 23.9602 2.97147 24.7865C3.29284 23.9581 3.52446 23.1783 3.81762 22.4636C4.10523 21.7499 4.44113 21.1132 4.87232 20.6027C5.30352 20.0918 5.83899 19.7001 6.51249 19.4176C6.85865 19.2689 7.23258 19.1504 7.63173 19.0524C7.56634 19.1142 7.50352 19.1781 7.44626 19.2497C7.17831 19.583 7.02959 20.0496 7.07275 20.4974C7.10865 20.947 7.30779 21.3484 7.56335 21.6651C7.82446 21.9817 8.14241 22.2284 8.51292 22.3908C8.34925 22.0213 8.17275 21.6974 8.03771 21.3744C7.89967 21.0536 7.80181 20.7403 7.7766 20.4395C7.75096 20.1365 7.79711 19.8391 7.92147 19.5339C8.00309 19.3286 8.12446 19.1227 8.26036 18.9143C8.31591 18.9045 8.37361 18.8947 8.43044 18.8849C8.42788 18.8939 8.42403 18.9033 8.42232 18.9131C8.44113 18.8994 8.45865 18.8888 8.4766 18.8756C8.56506 18.8607 8.65267 18.8449 8.74369 18.8295C9.09925 19.15 9.43643 19.4896 9.74882 19.8463C10.4668 20.6705 11.0864 21.5722 11.6433 22.5075C12.1975 23.4433 12.6907 24.4166 13.1326 25.4082C13.5676 26.3892 14.2223 28.4355 14.5287 29.4135L16.9236 28.4104C16.3437 27.3484 15.4881 25.3955 14.8245 24.4452C14.1625 23.5038 13.4535 22.5957 12.6877 21.7401C11.9223 20.8844 11.0975 20.0768 10.1928 19.3741C9.80523 19.0741 9.39839 18.798 8.97745 18.5462C9.10309 18.4737 9.22831 18.4034 9.35267 18.3523C9.65865 18.2236 9.95694 18.175 10.2586 18.1972C10.5616 18.2202 10.8757 18.3135 11.1988 18.4473C11.5257 18.5781 11.8535 18.7511 12.2245 18.9088C12.0582 18.5415 11.8061 18.2278 11.4864 17.9713C11.1663 17.719 10.7612 17.5256 10.3095 17.4945C9.9672 17.4651 9.61634 17.549 9.32061 17.7097C9.50779 17.3398 9.70737 16.9963 9.93002 16.6899C10.3552 16.0972 10.8561 15.6629 11.4501 15.357C12.0445 15.0489 12.742 14.8622 13.5031 14.7395C14.2659 14.6112 15.0804 14.5575 15.9608 14.4263C15.2245 13.9281 14.3869 13.6286 13.4886 13.5173C12.5975 13.4134 11.6133 13.5186 10.7309 13.9784C9.84412 14.4271 9.14668 15.2517 8.83899 16.1432C8.59497 16.8429 8.53429 17.575 8.67361 18.2619C8.46121 17.6197 8.30908 17.0138 8.25138 16.433C8.17574 15.7081 8.26164 15.0514 8.50267 14.4293C8.74241 13.8062 9.14113 13.2058 9.62959 12.6101C10.1151 12.0084 10.6898 11.4305 11.2612 10.75C10.3792 10.8629 9.55181 11.1936 8.80608 11.7045C8.06976 12.2155 7.40309 12.945 7.04797 13.8736C6.68301 14.7953 6.70779 15.8747 7.07061 16.7449C7.12788 16.8855 7.20352 17.0151 7.27446 17.1463C7.03899 16.9737 6.78386 16.8212 6.51036 16.695C5.65267 16.3 4.57232 16.2301 3.63173 16.5578C2.68728 16.8749 1.93002 17.5098 1.38728 18.2232C0.845401 18.9467 0.481726 19.7564 0.333008 20.6312C1.03942 20.0896 1.64113 19.5403 2.26207 19.0805C2.87916 18.6173 3.49754 18.2453 4.13087 18.031C4.7642 17.8158 5.42617 17.757 6.14882 17.8609C6.84796 17.9594 7.57788 18.1929 8.36036 18.5091C8.40865 18.5474 8.45908 18.5828 8.50566 18.6224C8.50352 18.628 8.50181 18.6344 8.5001 18.6403C8.48685 18.6327 8.47275 18.6254 8.45865 18.6182C8.46335 18.6109 8.46634 18.605 8.47147 18.5986C8.46121 18.6007 8.45224 18.6054 8.44198 18.6075C7.77275 18.2764 7.00096 18.1456 6.21677 18.2342C5.27574 18.3369 4.31634 18.8342 3.68173 19.5979C3.03728 20.3564 2.71848 21.2896 2.62532 22.1811Z" fill="white"/>
</svg>
