<svg width="21" height="21" viewBox="0 0 21 21" fill="none" xmlns="http://www.w3.org/2000/svg">
<path d="M8.54167 0.083374C13.2131 0.083374 17 3.8703 17 8.54171C17 10.4565 16.3638 12.2226 15.2912 13.6403L20.1583 18.5084C20.6139 18.964 20.6139 19.7027 20.1583 20.1583C19.7027 20.6139 18.964 20.6139 18.5084 20.1583L13.6403 15.2912C12.2226 16.3638 10.4564 17 8.54167 17C3.87026 17 0.0833359 13.2131 0.0833359 8.54171C0.0833359 3.8703 3.87026 0.083374 8.54167 0.083374ZM8.54167 2.41671C5.15893 2.41671 2.41667 5.15896 2.41667 8.54171C2.41667 11.9245 5.15893 14.6667 8.54167 14.6667C11.9244 14.6667 14.6667 11.9245 14.6667 8.54171C14.6667 5.15896 11.9244 2.41671 8.54167 2.41671Z" fill="#BDBDBD"/>
</svg>
